<?xml version="1.0" standalone="no"?>
<!DOCTYPE svg PUBLIC "-//W3C//DTD SVG 20010904//EN"
 "http://www.w3.org/TR/2001/REC-SVG-20010904/DTD/svg10.dtd">
<svg version="1.0" xmlns="http://www.w3.org/2000/svg"
 width="1378.000000pt" height="1378.000000pt" viewBox="0 0 1378.000000 1378.000000"
 preserveAspectRatio="xMidYMid meet">
<metadata>
Created by potrace 1.14, written by Peter Selinger 2001-2017
</metadata>
<g transform="translate(0.000000,1378.000000) scale(0.100000,-0.100000)"
fill="#000000" stroke="none">
<path d="M5880 12996 c-58 -13 -89 -29 -157 -83 -25 -20 -48 -31 -57 -27 -12
5 -14 10 -6 19 29 34 -73 22 -109 -14 l-21 -21 28 0 c41 -1 5 -19 -47 -24 -24
-2 -62 -17 -88 -34 -26 -17 -50 -27 -53 -22 -3 5 -14 7 -25 6 -11 -2 -30 2
-42 10 -17 11 -22 11 -26 0 -3 -7 -36 -31 -74 -53 -63 -38 -104 -49 -235 -67
-9 -1 -36 -20 -60 -42 -44 -41 -131 -104 -143 -104 -4 0 0 12 10 26 16 25 16
25 -7 13 -58 -30 -153 -116 -179 -162 -10 -17 -9 -17 23 -2 18 10 56 40 85 67
42 42 56 49 76 44 25 -6 54 14 40 27 -3 4 3 7 16 7 12 0 79 29 149 65 87 45
143 68 177 71 l50 6 -30 -26 c-40 -34 -115 -69 -223 -104 -68 -23 -100 -39
-127 -66 -32 -32 -141 -91 -257 -139 -43 -18 -44 -17 -22 24 25 50 15 64 -25
35 -31 -23 -98 -51 -147 -60 -64 -13 -249 -123 -249 -149 0 -19 -72 -80 -85
-72 -6 4 -2 14 12 25 13 11 18 19 11 20 -7 0 -39 -26 -72 -59 -43 -43 -70 -61
-103 -69 -25 -7 -51 -19 -59 -28 -19 -24 -126 -104 -138 -104 -19 0 -19 16 0
60 l20 45 -33 -31 c-18 -17 -46 -43 -63 -57 -34 -31 -27 -46 15 -30 22 8 27 8
24 -2 -3 -6 -26 -18 -52 -27 -30 -9 -46 -20 -45 -29 2 -8 -17 -26 -41 -42 -49
-31 -77 -37 -56 -12 7 8 21 15 31 15 21 0 27 30 7 30 -7 0 8 12 35 27 26 14
47 31 47 36 0 6 -9 2 -20 -8 -10 -9 -34 -20 -51 -24 -18 -4 -33 -13 -34 -22
-2 -9 -20 -38 -40 -65 -54 -71 -272 -295 -290 -298 -9 -1 -27 -18 -40 -38 -34
-51 -95 -113 -95 -98 0 7 10 29 21 49 15 24 -14 0 -85 -71 -59 -60 -111 -108
-116 -108 -10 0 3 35 29 80 10 18 2 13 -26 -15 -22 -22 -64 -62 -93 -90 -45
-42 -114 -131 -257 -328 -27 -37 -28 -38 -34 -15 -6 19 -7 19 -8 4 -1 -11 -13
-40 -27 -65 l-27 -46 35 33 c48 45 58 40 15 -8 -20 -21 -47 -57 -61 -78 -14
-23 -36 -42 -50 -46 -14 -3 -26 -13 -26 -21 0 -8 -4 -15 -10 -15 -5 0 -10 -5
-10 -11 0 -19 -62 -90 -74 -86 -15 6 -59 -39 -61 -61 -1 -10 -34 -59 -73 -110
-39 -52 -106 -150 -148 -218 -55 -90 -79 -122 -88 -115 -18 15 -54 -55 -39
-77 8 -13 4 -25 -17 -52 -15 -19 -33 -52 -40 -72 -6 -22 -20 -40 -31 -43 -13
-5 -18 -12 -14 -22 3 -9 -1 -25 -8 -37 -7 -12 -19 -40 -25 -62 -9 -32 -18 -43
-37 -48 -14 -4 -23 -11 -20 -16 4 -6 11 -8 17 -4 11 7 -16 -49 -37 -74 -57
-70 -68 -82 -81 -82 -7 0 -18 -9 -24 -20 -6 -11 -7 -20 -2 -20 5 0 17 9 27 20
10 11 22 20 27 20 16 0 8 -21 -17 -46 -14 -14 -32 -41 -40 -61 -19 -46 -19
-56 1 -20 21 38 30 27 10 -11 -9 -17 -23 -52 -32 -78 -18 -53 -43 -93 -59 -94
-5 0 -10 -11 -10 -25 0 -27 10 -33 19 -12 10 21 -1 -25 -35 -146 -26 -97 -34
-115 -43 -100 -6 10 -11 21 -12 26 -1 4 -2 10 -3 15 -1 4 -5 1 -10 -7 -5 -8
-7 -43 -4 -78 4 -49 2 -68 -10 -81 -17 -20 -36 -83 -33 -109 2 -10 -8 -38 -21
-62 -13 -25 -26 -62 -29 -83 -4 -21 -10 -41 -14 -43 -5 -3 -6 9 -3 26 4 31
-12 63 -28 53 -5 -3 -7 -50 -5 -106 4 -83 1 -107 -15 -142 l-19 -41 3 38 c2
27 0 36 -10 33 -9 -4 -11 6 -7 37 l4 42 -13 -35 c-7 -19 -18 -44 -24 -54 -9
-17 -11 -14 -17 21 -4 22 -2 60 5 87 6 26 9 49 6 52 -6 7 -32 -75 -29 -91 4
-19 -29 30 -35 52 -5 24 -7 24 -118 24 -25 0 -53 0 -63 0 -13 -1 -29 -23 -52
-73 -19 -40 -58 -125 -88 -188 -30 -63 -67 -144 -84 -179 -28 -62 -40 -87
-152 -325 -31 -65 -56 -120 -56 -121 0 -1 -36 -78 -80 -169 -44 -92 -80 -169
-80 -171 0 -2 -24 -55 -54 -117 -29 -62 -68 -144 -86 -183 -18 -38 -43 -93
-56 -122 -13 -28 -24 -54 -24 -57 0 -3 44 -6 98 -6 l98 0 24 43 c67 121 178
227 300 286 53 26 182 61 222 61 26 0 28 -3 23 -29 -3 -17 -2 -32 3 -35 4 -2
40 22 80 55 l73 60 -2 -38 c0 -21 3 -56 8 -78 12 -58 5 -115 -13 -115 -11 0
-13 -6 -8 -22 4 -13 8 -54 8 -91 1 -44 6 -71 14 -76 15 -9 13 -30 -6 -50 -8
-8 -11 -23 -7 -35 13 -42 10 -49 -23 -58 -37 -10 -39 -13 -46 -88 -6 -66 7
-89 58 -97 23 -4 36 -11 37 -22 1 -9 2 -34 3 -56 1 -22 10 -52 20 -67 17 -27
17 -29 -4 -73 -22 -45 -23 -86 -5 -158 l7 -27 -103 -1 c-187 -2 -301 -27 -360
-80 l-32 -28 34 -15 c19 -8 43 -18 54 -22 29 -10 95 -12 89 -2 -3 4 2 8 11 8
10 0 13 -5 9 -12 -4 -7 3 -4 16 7 13 11 20 14 16 8 -4 -7 -2 -13 3 -13 6 0 11
5 11 10 0 7 6 8 16 2 17 -9 76 -4 70 7 -3 4 4 8 15 8 18 2 18 0 4 -27 -12 -23
-14 -54 -9 -152 3 -68 5 -130 5 -139 1 -18 48 -49 77 -49 11 0 25 7 32 15 29
35 37 17 33 -70 -2 -47 0 -85 5 -85 5 0 23 16 41 35 37 41 48 43 57 11 8 -32
1 -62 -14 -59 -8 2 -9 -7 -4 -30 7 -31 7 -78 0 -127 -2 -18 4 -28 25 -38 15
-7 27 -19 27 -26 0 -7 7 -21 15 -32 13 -17 13 -15 4 20 -9 34 -8 42 6 52 14
10 23 10 51 -3 18 -9 31 -20 28 -24 -2 -5 -5 -28 -6 -53 0 -32 -4 -43 -13 -40
-7 3 -16 0 -20 -6 -4 -7 2 -14 14 -17 26 -7 51 -56 51 -100 l0 -34 -25 28
c-23 25 -22 22 8 -37 57 -111 82 -179 70 -191 -8 -8 -7 -18 3 -37 8 -15 14
-32 14 -37 0 -6 10 -21 23 -35 13 -14 38 -52 55 -85 18 -34 44 -73 57 -87 20
-22 24 -35 20 -65 -4 -32 0 -42 26 -69 24 -25 29 -36 23 -58 -4 -18 -11 -25
-20 -22 -18 7 -18 3 6 -36 24 -39 26 -91 5 -108 -18 -15 -45 -6 -45 15 0 9 -4
13 -10 10 -6 -4 -6 -12 0 -23 5 -9 12 -30 15 -47 7 -32 80 -109 96 -100 5 4 9
15 9 25 0 10 8 26 17 36 18 18 20 49 8 99 l-8 30 29 -34 c16 -19 28 -42 26
-51 -1 -9 8 -28 22 -41 13 -14 27 -41 31 -62 8 -39 21 -49 28 -19 3 13 6 11
15 -11 7 -16 12 -38 12 -51 0 -12 11 -37 25 -56 14 -19 25 -40 25 -47 0 -7 7
-13 15 -13 20 0 19 10 -5 40 -11 14 -20 34 -20 45 0 13 10 4 28 -27 15 -26 39
-68 55 -94 31 -54 29 -70 -4 -25 -12 16 -28 32 -36 35 -8 3 -3 -9 10 -27 14
-17 35 -52 47 -77 13 -25 29 -49 36 -55 26 -21 51 -175 35 -218 -16 -42 -57
-62 -123 -60 -55 2 -59 1 -73 -27 -10 -18 -23 -30 -36 -30 -11 0 -17 -5 -14
-10 4 -7 12 -7 25 0 26 14 33 -13 15 -57 -22 -52 -20 -65 32 -170 55 -111 74
-125 132 -95 20 10 43 31 51 46 14 24 13 29 -3 57 -22 40 -22 44 8 57 40 18
54 15 88 -23 l32 -35 85 40 c47 22 93 40 102 40 24 0 47 -27 41 -49 -4 -15 1
-20 24 -23 25 -3 28 -7 29 -43 3 -71 4 -75 24 -95 11 -11 31 -20 45 -20 19 0
31 -10 47 -36 13 -23 23 -31 28 -24 6 9 14 8 34 -5 24 -16 39 -44 16 -30 -21
13 -8 -13 20 -40 17 -16 30 -23 30 -17 0 9 7 8 24 -4 14 -9 22 -22 19 -30 -3
-8 5 -18 21 -25 16 -8 26 -20 26 -34 0 -15 28 -45 91 -98 50 -43 104 -97 120
-122 33 -51 53 -63 80 -47 15 9 17 9 13 -2 -6 -16 38 -52 110 -90 27 -14 54
-36 60 -48 14 -27 58 -46 49 -20 -6 15 -5 15 13 3 28 -20 -56 58 -106 99 -24
19 -47 36 -51 36 -5 1 -13 2 -19 3 -17 2 -11 21 7 21 20 0 158 -103 191 -142
13 -15 28 -26 33 -22 5 3 13 -6 18 -19 6 -16 21 -28 40 -32 16 -3 51 -26 78
-50 26 -24 62 -46 79 -50 17 -3 39 -14 49 -25 17 -19 17 -20 -9 -30 -16 -6
-24 -15 -20 -21 3 -6 -6 -3 -21 7 -42 28 -58 27 -37 -2 9 -13 32 -26 52 -30
46 -9 118 -49 155 -87 29 -29 117 -77 142 -77 6 0 14 -8 18 -18 5 -19 44 -42
70 -42 8 0 15 -4 15 -10 0 -5 -5 -10 -12 -10 -7 0 32 -22 87 -50 63 -32 101
-46 106 -39 7 12 79 -14 79 -30 0 -5 14 -14 30 -20 18 -6 30 -17 30 -28 0 -20
76 -58 125 -62 9 0 27 -12 41 -26 13 -14 28 -24 32 -23 4 1 18 -5 32 -14 14
-9 52 -22 85 -28 33 -7 66 -17 73 -22 7 -6 34 -15 60 -19 64 -13 132 -39 129
-52 -2 -11 39 -22 111 -30 46 -5 56 8 17 23 -14 5 -25 11 -25 13 0 2 11 2 25
-1 33 -6 32 6 -2 20 -26 11 -27 12 -6 15 12 3 32 -3 45 -11 21 -14 53 -23 85
-25 6 -1 15 -10 18 -22 4 -12 26 -29 53 -40 57 -25 44 -36 -39 -35 -32 1 -59
0 -59 -1 0 -2 19 -12 42 -24 44 -22 89 -28 121 -14 12 5 28 1 45 -12 17 -13
34 -18 47 -13 35 12 164 -23 180 -50 3 -5 25 -9 48 -9 l42 2 -37 10 c-21 6
-38 14 -38 18 0 4 23 1 51 -7 35 -11 59 -12 77 -6 31 10 55 5 46 -10 -4 -7 -2
-8 4 -4 7 4 12 2 12 -4 0 -8 10 -9 30 -5 22 5 37 1 57 -15 l28 -22 -42 6 c-24
3 -67 12 -96 21 -48 14 -57 14 -83 0 -16 -8 -36 -15 -44 -15 -35 -1 22 -28 61
-28 22 -1 55 -10 74 -22 l34 -21 7 26 c6 24 10 26 47 21 43 -6 62 -16 31 -16
-16 0 -17 -2 -4 -11 11 -8 6 -9 -21 -7 -31 3 -35 1 -27 -12 7 -11 21 -14 42
-12 21 2 39 -2 50 -13 9 -9 23 -15 30 -12 8 3 43 1 78 -4 116 -18 158 -18 127
2 -10 6 -3 9 21 9 206 5 205 5 205 -10 0 -17 -39 -18 -132 -6 -29 4 -57 5 -62
1 -19 -11 0 -32 30 -33 16 0 27 3 24 8 -3 5 9 4 27 -2 42 -13 175 -13 210 1
20 7 28 7 31 -3 6 -15 88 -45 135 -50 37 -3 30 11 -8 17 -36 6 -28 20 21 37
24 8 49 18 55 22 11 8 24 1 24 -13 0 -4 -14 -10 -31 -14 -22 -5 -28 -10 -20
-18 7 -7 22 -7 50 2 35 10 39 14 32 33 -11 31 -51 39 -116 23 -30 -7 -55 -8
-55 -4 0 5 -10 9 -22 9 -20 0 -20 2 -8 15 19 18 81 21 235 10 131 -8 152 -9
207 -4 43 4 35 23 -10 25 -44 3 -48 5 -27 14 11 5 36 9 55 10 19 0 44 7 54 15
23 17 91 21 81 4 -4 -5 -17 -9 -28 -8 -38 2 -47 -1 -47 -16 0 -9 -7 -18 -15
-21 -23 -9 -18 -23 10 -30 15 -4 32 -1 41 7 9 7 44 14 79 16 58 2 63 1 58 -18
-5 -18 -3 -18 22 -9 26 10 44 13 160 26 28 3 65 10 83 15 26 9 38 8 55 -4 19
-13 28 -13 72 0 54 16 81 33 52 33 -27 0 -20 19 11 26 15 3 48 12 75 20 26 7
47 10 47 6 -1 -21 -22 -36 -54 -36 -37 -1 -40 -4 -30 -29 5 -13 16 -11 67 14
34 16 67 29 74 29 6 0 14 4 17 9 4 5 -4 7 -16 5 -13 -3 -4 4 20 15 29 14 49
18 65 12 15 -6 25 -4 32 5 5 8 35 16 65 20 30 4 65 10 78 15 29 11 32 11 32
-1 0 -5 -18 -19 -40 -30 -22 -11 -40 -23 -40 -26 0 -3 4 -2 10 1 5 3 18 1 29
-4 19 -11 47 -2 111 34 27 16 95 20 86 6 -4 -5 20 -7 56 -4 45 4 71 12 90 29
22 18 24 23 12 28 -25 10 -7 23 24 18 16 -2 42 3 58 11 30 16 57 21 159 33 33
3 73 13 89 21 16 8 63 25 106 38 42 13 95 33 116 44 l39 22 -32 -7 c-48 -8
-40 4 19 31 63 27 114 43 86 25 -28 -17 -21 -30 15 -30 26 0 38 8 67 45 38 48
58 59 108 57 18 -1 47 7 65 18 17 11 38 20 45 20 7 0 33 14 58 31 24 16 74 44
110 61 60 28 67 29 76 14 11 -20 28 -12 28 14 0 25 27 39 66 33 19 -3 45 3 68
15 28 15 44 18 61 12 17 -7 29 -4 45 10 l21 18 -23 4 c-21 4 -20 6 12 22 30
15 31 16 8 11 -40 -8 -36 14 9 49 33 27 36 27 31 8 -4 -14 -2 -19 7 -16 7 3
16 15 19 27 3 12 31 37 62 57 76 47 78 47 70 16 -4 -18 -2 -26 6 -26 26 0 94
23 118 39 14 10 43 18 65 20 43 3 97 31 60 31 -17 0 -17 2 5 25 13 13 31 27
41 30 10 3 17 14 16 25 -1 18 -2 18 -37 0 -20 -10 -42 -26 -49 -34 -17 -20
-41 -21 -41 -2 0 7 13 19 29 26 16 6 32 18 35 27 4 10 13 12 27 8 13 -4 19 -3
16 2 -7 11 29 47 56 56 9 4 17 11 17 16 0 6 -8 7 -17 4 -16 -6 -16 -5 -4 10 7
10 31 20 53 23 21 4 44 15 51 25 7 10 19 19 27 21 8 2 27 19 42 40 31 42 51
57 41 32 -11 -28 52 12 113 73 29 29 60 53 67 53 18 0 93 97 113 146 8 19 16
47 18 63 2 16 14 41 28 56 22 23 29 25 47 16 29 -16 27 -24 -14 -58 -38 -30
-55 -73 -29 -73 8 0 13 4 10 8 -7 12 20 49 45 63 19 10 20 9 9 -12 l-12 -22
31 22 c17 13 38 37 45 55 14 33 59 73 129 115 31 19 38 28 35 50 -4 34 -19 33
-36 -2 -7 -15 -27 -34 -45 -43 -18 -9 -52 -35 -76 -58 l-45 -41 35 45 c19 25
46 59 60 75 156 177 251 290 284 338 22 31 44 57 48 57 5 0 5 -4 2 -10 -12
-19 7 -10 26 12 10 13 18 31 19 41 0 9 5 17 12 17 7 0 25 12 41 28 28 25 29
26 23 5 -5 -14 -3 -23 3 -23 6 0 11 8 11 18 0 9 21 41 46 70 25 28 43 52 40
52 -14 0 27 77 50 95 14 11 34 45 45 74 10 30 28 60 39 68 50 35 116 123 184
245 20 36 43 72 51 78 8 7 15 17 15 22 0 5 11 24 25 42 15 20 22 40 19 52 -3
13 2 28 12 39 21 21 27 45 14 60 -6 8 -4 19 5 31 14 18 15 18 21 -5 7 -22 7
-22 22 10 8 19 14 45 13 58 -1 27 27 91 40 91 5 0 9 -8 9 -17 0 -10 20 41 45
112 30 88 45 147 45 183 0 61 22 102 54 102 31 0 39 10 22 29 -19 21 -10 101
11 101 11 0 14 -12 12 -50 -3 -61 3 -69 26 -33 10 15 24 34 31 40 22 23 54
122 54 169 0 40 2 45 19 39 19 -6 21 -2 35 70 2 11 15 50 29 86 17 46 22 70
15 82 -7 13 -5 17 7 17 9 0 15 9 15 24 0 14 5 28 11 31 17 11 27 48 19 76 -4
15 -4 33 1 40 7 12 9 11 10 -1 2 -46 79 219 80 278 2 67 19 122 38 122 14 0
14 2 1 11 -11 8 -8 9 13 4 21 -4 27 -3 21 6 -5 8 -3 9 5 5 20 -13 83 -9 92 5
7 11 9 11 9 -1 0 -13 2 -13 9 -1 6 9 28 14 60 15 33 1 51 5 51 13 0 7 15 17
33 22 l32 9 -30 2 c-16 1 -42 3 -57 4 -29 1 -51 16 -24 16 9 0 14 5 11 10 -3
6 -3 10 2 11 54 5 81 4 97 -4 13 -6 16 -6 12 2 -5 7 9 11 41 12 l48 2 -40 7
c-69 11 -299 11 -350 0 -56 -12 -64 -6 -65 50 -1 31 -2 32 -10 13 -13 -32 -17
-28 -12 12 2 20 10 35 17 35 8 0 17 18 21 43 19 101 36 160 44 147 17 -27 21
58 5 114 -4 16 -3 64 5 115 6 47 14 101 16 119 4 45 8 48 56 50 24 1 56 6 73
12 16 5 45 12 62 15 70 11 207 75 288 133 189 136 316 342 353 572 4 25 6 101
6 170 -2 103 -7 141 -28 215 -82 278 -267 477 -536 579 -92 34 -167 47 -299
52 -63 2 -115 5 -115 6 -1 2 -9 19 -19 38 -20 39 -74 108 -59 75 5 -11 12 -37
16 -57 4 -21 14 -44 22 -53 14 -13 13 -15 -5 -15 -27 0 -25 0 -63 -11 -18 -5
-46 -12 -62 -15 -15 -2 -44 -11 -62 -19 -31 -13 -34 -12 -35 3 -1 26 -9 65
-14 71 -3 2 -5 -20 -5 -49 0 -50 -1 -52 -15 -34 -8 10 -24 39 -35 63 -18 40
-19 46 -5 53 23 13 18 37 -16 75 -26 30 -30 41 -25 73 3 23 0 44 -9 57 -8 12
-10 24 -5 34 5 7 6 25 3 39 -6 23 -5 24 12 10 17 -14 18 -13 11 15 -4 17 -14
43 -22 59 -19 39 -18 46 8 46 l21 0 -20 23 c-11 12 -23 30 -26 40 -6 17 -27
24 -27 8 0 -20 -70 59 -74 85 -7 35 -26 56 -27 29 0 -17 -2 -17 -10 4 -7 18
-6 26 7 36 12 8 14 14 6 19 -7 4 -12 16 -12 26 0 11 -11 36 -25 56 -26 39 -53
119 -61 181 -6 45 -11 53 -33 53 -14 0 -18 -8 -18 -35 0 -19 4 -35 9 -35 4 0
8 6 8 13 1 16 48 -117 59 -166 8 -32 7 -36 -5 -26 -8 6 -14 17 -14 24 0 7 -9
32 -20 56 -21 43 -21 44 -14 9 l6 -35 -32 48 c-27 39 -30 50 -19 63 10 12 8
20 -10 44 -18 25 -19 30 -6 30 12 0 13 4 6 19 -6 10 -8 21 -5 23 3 3 -15 23
-39 45 -43 37 -44 40 -31 65 12 23 11 31 -11 74 -14 27 -25 59 -25 72 0 13
-13 47 -30 77 -34 62 -36 67 -15 59 10 -4 1 21 -24 74 -39 78 -53 92 -92 92
-10 0 -19 6 -19 13 0 17 -52 67 -69 67 -11 0 -11 3 -1 15 11 13 10 21 -7 43
-10 15 -22 35 -26 45 -4 11 -16 21 -26 24 -11 3 -22 12 -25 20 -5 12 -1 14 21
9 27 -7 36 -14 59 -53 7 -10 15 -15 18 -12 4 3 -14 33 -39 65 -26 32 -44 66
-42 75 3 10 -18 39 -55 75 -32 32 -61 68 -64 81 -4 13 -12 23 -20 23 -16 0
-64 61 -64 83 0 14 -48 57 -64 57 -4 0 12 -25 35 -57 32 -43 40 -60 32 -72 -6
-10 -7 -26 -2 -39 8 -22 8 -22 -16 -5 -13 10 -25 28 -25 40 0 12 -5 25 -12 29
-17 11 -2 -51 18 -75 48 -56 66 -73 71 -67 4 4 1 12 -5 18 -14 14 -16 28 -4
28 14 0 46 -64 34 -68 -6 -2 -8 -10 -5 -18 3 -7 8 -12 13 -9 4 2 15 -14 24
-37 14 -36 14 -43 2 -50 -12 -7 -9 -19 19 -71 32 -60 37 -75 51 -159 4 -25 16
-44 36 -59 37 -29 57 -62 31 -52 -18 7 -18 7 15 -74 11 -28 23 -43 35 -43 9 0
25 -8 35 -18 18 -19 27 -72 11 -72 -5 0 -9 5 -9 12 0 6 -2 9 -5 6 -3 -2 4 -30
15 -61 11 -31 20 -61 20 -67 0 -6 18 -37 40 -69 29 -42 40 -68 38 -90 -1 -17
-3 -31 -5 -31 -8 0 -33 62 -33 82 0 13 -9 29 -20 36 -23 14 -45 62 -55 121 -5
33 -13 45 -37 57 l-31 16 20 -29 c11 -15 39 -79 63 -141 34 -89 53 -123 86
-157 40 -41 77 -118 91 -187 5 -28 23 -39 23 -15 1 18 67 -60 67 -78 0 -11 -8
-6 -24 14 -25 31 -46 42 -38 19 2 -7 7 -26 9 -42 3 -16 15 -39 26 -51 26 -28
38 -80 16 -72 -10 4 -6 -7 10 -30 13 -20 24 -40 24 -46 0 -5 8 -7 18 -5 27 7
48 -28 28 -47 -9 -9 -13 -28 -11 -47 8 -66 13 -128 10 -128 -2 0 -15 36 -30
80 -15 44 -34 88 -43 97 -9 9 -29 52 -44 97 -19 56 -26 69 -24 43 l5 -37 -24
29 c-23 27 -28 72 -11 100 4 5 -3 17 -16 25 -19 14 -23 14 -35 -2 -13 -15 -14
-13 -9 20 4 31 0 44 -21 68 -18 22 -23 37 -19 54 3 14 0 28 -8 35 -7 6 -13 22
-13 34 0 13 -16 46 -35 73 -20 27 -41 59 -47 72 -10 19 -9 22 8 22 11 0 22 -9
26 -20 3 -11 11 -20 16 -20 16 0 10 21 -17 52 -14 17 -23 37 -20 44 3 9 -8 18
-34 25 -22 7 -47 21 -57 31 -16 18 -16 19 5 25 12 3 22 9 22 14 0 21 -30 79
-40 79 -6 0 -20 21 -31 48 -11 26 -35 63 -53 82 -30 32 -113 171 -150 251 -27
59 -79 114 -110 117 -23 3 -27 0 -22 -13 3 -9 6 -29 6 -45 0 -22 5 -29 29 -33
17 -4 38 -19 52 -39 13 -18 32 -41 42 -50 24 -21 14 -42 -13 -28 -27 15 -32
12 -20 -9 5 -11 10 -28 10 -39 0 -11 20 -49 45 -86 73 -106 84 -160 16 -73
-19 23 -30 33 -26 22 20 -56 19 -55 -38 18 -28 37 -66 57 -142 72 -58 13 -135
49 -135 64 0 5 -22 38 -50 74 -27 36 -50 74 -50 84 0 37 -39 205 -51 219 -10
12 -8 19 10 35 22 20 22 22 4 41 -28 31 -69 48 -120 52 -31 2 -50 9 -59 22
-30 44 -35 46 -53 30 -9 -8 -33 -22 -53 -30 -33 -14 -36 -14 -55 7 -30 35
-136 187 -166 239 -21 36 -42 56 -92 83 -69 39 -97 70 -120 134 -26 75 -137
229 -216 299 -58 51 -89 56 -143 21 -25 -16 -46 -35 -46 -44 0 -17 -1 -17 62
-20 31 -1 61 -11 92 -31 45 -28 46 -30 46 -80 0 -83 -12 -85 -130 -19 -92 53
-136 88 -173 139 -10 13 -27 19 -59 21 -66 2 -83 18 -183 167 -13 20 -41 54
-62 77 -21 22 -55 58 -76 81 -38 41 -58 46 -156 42 -25 -1 -53 -20 -46 -31 2
-4 7 -32 10 -61 5 -38 3 -55 -7 -61 -23 -15 -38 -10 -68 22 l-28 32 -30 -22
c-17 -11 -37 -19 -45 -16 -18 8 -52 54 -70 97 -8 19 -25 45 -38 57 -28 26
-112 71 -132 71 -27 0 -40 -31 -45 -103 -5 -92 -13 -100 -76 -94 -40 3 -53 10
-70 33 -11 16 -37 47 -58 69 -22 25 -39 55 -44 80 -4 22 -15 59 -26 83 -10 24
-18 54 -18 66 0 17 -15 30 -66 57 -45 23 -68 30 -71 22 -7 -20 -87 25 -101 57
-16 35 -38 44 -63 26 -21 -14 -54 -7 -108 23 -13 7 -38 14 -55 16 -17 1 -47 8
-66 15 -19 7 -41 14 -47 16 -19 5 -16 24 4 24 13 0 14 3 6 11 -7 7 -9 24 -6
40 3 16 -1 39 -10 56 -9 15 -18 36 -21 46 -8 25 -26 21 -102 -18 -79 -42 -96
-43 -118 -10 -31 47 -111 71 -87 26 8 -14 6 -17 -7 -16 -10 0 -24 5 -31 9 -15
10 -25 11 -153 20 -83 6 -88 6 -88 -13 0 -19 -18 -31 -46 -31 -20 0 -15 59 6
64 8 2 38 7 65 11 28 4 70 17 95 29 25 12 59 21 75 20 121 -6 219 -17 274 -31
44 -10 70 -12 80 -6 17 11 37 9 86 -6 23 -7 25 -9 9 -10 -27 -1 -55 -31 -30
-31 10 0 14 5 11 10 -4 6 13 10 42 11 26 0 58 2 70 5 12 2 29 -4 38 -13 12
-12 31 -16 66 -14 27 1 79 -7 116 -18 38 -11 91 -23 118 -26 47 -5 128 -21
168 -32 9 -2 17 0 17 6 0 5 -19 14 -42 20 -41 10 -40 10 17 5 91 -7 179 -32
264 -74 31 -15 74 -31 96 -34 22 -4 91 -25 152 -46 120 -42 178 -53 204 -39
11 5 44 -3 100 -24 46 -17 76 -33 67 -35 -33 -6 -18 -18 41 -31 70 -16 86 -31
94 -89 3 -27 20 -66 43 -100 23 -35 39 -70 40 -92 1 -19 2 -38 3 -43 0 -4 32
14 71 39 84 57 110 55 129 -6 6 -22 22 -52 35 -67 23 -26 25 -27 74 -15 58 13
82 8 82 -17 0 -20 19 -41 37 -41 22 0 14 29 -12 46 -14 9 -25 26 -25 39 0 16
-16 32 -61 60 -33 20 -88 63 -122 95 -57 53 -165 130 -184 130 -4 0 -17 8 -28
16 -20 16 -20 16 2 9 49 -14 143 -5 143 14 0 4 -14 23 -30 41 -17 19 -28 40
-26 46 3 7 -28 37 -69 68 -84 63 -113 92 -125 122 -10 26 -110 51 -110 28 0
-24 -26 -15 -72 22 -47 40 -57 54 -36 54 10 0 10 2 -2 9 -8 6 -18 7 -22 5 -5
-3 -21 4 -37 15 -43 31 -108 56 -204 80 -47 12 -112 35 -144 50 -69 34 -98 40
-234 46 -106 6 -149 18 -81 24 20 2 79 4 129 5 51 1 93 2 93 3 0 1 -15 10 -32
21 -20 12 -60 23 -98 26 -69 6 -83 8 -200 31 -90 18 -163 29 -227 34 -7 1 -13
4 -13 9 0 4 45 5 100 4 95 -4 126 5 83 23 -33 14 -113 12 -113 -2 0 -16 -19
-17 -56 -3 -42 16 -134 17 -143 1 -7 -10 -13 -11 -31 -1 -18 9 -20 14 -9 21
28 17 -3 21 -43 6 -40 -16 -42 -16 -55 3 -13 19 -16 19 -50 5 -37 -16 -69 -13
-59 4 8 13 -19 8 -37 -7 -12 -10 -19 -9 -38 7 -25 20 -23 23 26 34 13 3 8 5
-12 6 -17 0 -38 -6 -46 -13 -11 -11 -33 -14 -83 -12 -38 2 -86 -2 -106 -9 -29
-9 -40 -10 -47 -1 -18 22 4 33 67 31 63 -1 71 2 51 22 -8 8 -4 16 13 28 l23
17 -36 -5 c-25 -4 -45 0 -63 12 -21 14 -36 17 -70 10 -23 -4 -51 -6 -62 -4
-10 2 -21 4 -24 4 -3 1 2 6 10 11 12 8 12 10 -5 11 -11 0 -28 2 -37 4 -10 2
-18 -1 -18 -6 0 -5 9 -9 20 -9 11 0 20 -4 20 -8 0 -4 -17 -6 -37 -3 -21 2 -32
6 -25 8 22 8 13 20 -15 19 -24 -1 -29 4 -31 27 -3 21 -8 27 -19 23 -46 -18
-66 -18 -92 2 -20 15 -32 17 -45 10 -12 -7 -24 -5 -39 5 -16 10 -48 14 -114
13 -109 -2 -146 6 -93 22 l35 10 -30 2 c-16 1 -40 3 -53 4 -13 2 -26 -2 -30
-8 -4 -7 -43 -11 -97 -11 -49 0 -112 -3 -140 -7 -58 -8 -153 -18 -210 -23 -22
-2 -46 -3 -53 -4 -7 -1 -10 -6 -7 -11 4 -6 -8 -17 -27 -24 -27 -12 -37 -12
-58 -1 -33 16 -74 12 -168 -19 -123 -40 -158 -42 -114 -4 20 18 83 42 162 62
l55 14 -66 0 c-47 1 -77 -5 -102 -18 -31 -17 -37 -17 -47 -5 -10 13 -7 16 21
22 19 4 37 6 40 6 4 -1 15 7 24 17 18 19 17 20 -6 19 -13 -1 -49 -6 -79 -13z
m1300 -158 c0 -5 -16 -8 -36 -8 -20 0 -33 4 -29 10 7 11 65 9 65 -2z m75 -17
c11 -5 28 -5 37 0 12 7 24 1 46 -21 19 -19 36 -28 46 -24 19 7 19 9 6 34 -9
17 -8 19 12 11 38 -14 46 -39 20 -61 -18 -15 -32 -17 -75 -12 -28 3 -83 6
-120 6 -53 0 -66 3 -62 14 3 8 -2 13 -13 11 -37 -3 -63 1 -57 11 3 6 16 10 28
11 12 0 38 6 57 13 42 16 49 17 75 7z m-670 -29 c-8 -8 -55 -9 -55 -1 0 4 8 9
18 11 20 5 45 -2 37 -10z m304 -16 c-10 -10 -119 -15 -119 -6 0 6 28 10 62 10
34 0 59 -2 57 -4z m226 -16 c15 -7 9 -9 -25 -9 -33 -1 -41 2 -30 9 18 12 28
12 55 0z m-1817 -31 l24 -29 -36 -15 c-19 -8 -43 -15 -53 -14 -15 0 -14 2 3 9
30 12 37 38 13 45 -16 5 -18 10 -8 21 17 21 31 17 57 -17z m-818 -404 c0 -10
-79 -57 -90 -53 -6 2 8 16 32 31 40 26 58 33 58 22z m3057 -100 c-4 -8 -18
-15 -32 -15 -30 0 -25 17 9 30 25 9 30 6 23 -15z m1468 -25 c8 -12 -42 -12
-70 0 -16 7 -11 9 22 9 23 1 45 -3 48 -9z m-967 -236 c26 -5 32 -11 32 -33 0
-14 4 -33 9 -40 14 -22 -5 -50 -31 -47 -58 7 -89 19 -100 39 -11 20 -37 87
-38 96 0 4 83 -5 128 -15z m230 -33 c4 0 11 -20 16 -45 11 -53 0 -71 -53 -93
-44 -19 -56 -7 -42 43 6 22 11 56 11 76 0 36 1 36 30 28 17 -5 34 -9 38 -9z
m-104 -143 c-3 -4 -12 -8 -20 -8 -8 0 -13 4 -10 8 3 5 12 9 20 9 8 0 13 -4 10
-9z m61 -37 c3 -5 1 -12 -4 -15 -5 -3 -11 1 -15 9 -6 16 9 21 19 6z m81 -66
c8 -32 4 -36 -24 -28 -12 3 -22 13 -22 22 0 39 37 43 46 6z m-5522 -510 c-8
-19 -44 -40 -44 -26 0 8 38 41 47 41 1 0 0 -7 -3 -15z m-99 -110 c-27 -24 -51
-42 -53 -40 -7 6 32 52 62 73 49 35 43 15 -9 -33z m-101 -109 c-16 -19 -33
-35 -38 -35 -11 -1 23 50 43 66 27 20 25 5 -5 -31z m7721 -266 c3 -6 -4 -10
-17 -10 -18 0 -20 2 -8 10 19 12 18 12 25 0z m-50 -10 c-3 -5 -11 -10 -16 -10
-6 0 -7 5 -4 10 3 6 11 10 16 10 6 0 7 -4 4 -10z m235 -32 c30 -28 12 -45 -29
-29 -29 13 -46 35 -36 51 7 12 40 1 65 -22z m-66 -101 c-3 -9 -13 -17 -21 -17
-8 0 -12 3 -10 8 2 4 7 16 11 26 4 13 10 16 17 9 5 -5 7 -17 3 -26z m1286
-388 c0 -15 -36 7 -44 27 -13 33 -4 38 19 11 14 -15 25 -33 25 -38z m100 -159
c19 -46 5 -59 -16 -15 -10 22 -20 43 -22 48 -2 4 3 4 11 1 8 -3 21 -18 27 -34z
m-216 -189 c-7 -7 -34 28 -34 43 1 6 10 0 21 -13 11 -13 17 -27 13 -30z m-130
-27 c3 -8 2 -12 -4 -9 -6 3 -10 10 -10 16 0 14 7 11 14 -7z m172 -71 c9 -24
10 -41 4 -47 -7 -7 -10 -4 -10 6 0 8 -8 26 -18 39 -16 21 -18 30 -13 56 2 15
25 -18 37 -54z m-76 -46 c17 -32 29 -61 26 -64 -5 -6 -66 85 -66 100 0 4 -4 5
-10 2 -6 -4 -7 1 -3 11 4 12 3 15 -5 10 -8 -5 -10 -2 -6 9 9 22 22 8 64 -68z
m380 3 c4 -27 4 -50 1 -50 -12 0 -36 66 -36 97 0 28 2 30 14 18 8 -8 17 -37
21 -65z m-400 -49 c-1 -13 -29 45 -29 59 0 8 6 0 14 -19 8 -18 15 -36 15 -40z
m115 -21 c21 -41 18 -60 -5 -30 -18 23 -27 60 -15 60 2 0 11 -13 20 -30z m-29
-61 c11 -23 13 -34 5 -42 -8 -8 -11 -7 -11 4 0 7 -7 26 -14 42 -8 15 -11 27
-6 27 5 0 17 -14 26 -31z m376 -176 c15 -16 30 -41 34 -58 7 -30 7 -30 -17
-14 -13 9 -24 24 -24 32 0 9 -11 27 -24 41 -18 19 -20 26 -10 26 9 0 27 -12
41 -27z m-184 -78 c6 -14 8 -25 4 -25 -12 0 -32 23 -32 37 0 22 16 15 28 -12z
m291 -237 l12 -33 -22 21 c-12 12 -18 27 -15 33 10 16 13 14 25 -21z m63 -56
c8 2 14 -9 16 -27 2 -24 0 -27 -8 -15 -9 11 -10 5 -7 -27 2 -24 2 -43 -2 -43
-3 0 -16 29 -28 65 -20 62 -20 64 -3 55 11 -6 25 -9 32 -8z m-242 -52 c0 -10
-7 -7 -20 10 -11 14 -20 32 -20 40 0 10 7 7 20 -10 11 -14 20 -32 20 -40z
m348 -34 c7 -19 22 -38 33 -41 19 -6 49 -62 49 -91 0 -8 -7 -14 -15 -14 -20 0
-19 -6 4 -38 29 -42 39 -91 39 -182 -1 -79 -2 -83 -14 -55 -7 17 -18 60 -25
98 -8 43 -17 67 -26 67 -14 0 -15 5 -18 60 -1 19 -11 60 -23 90 -22 61 -36
140 -24 140 5 0 14 -16 20 -34z m-287 -46 c15 0 36 -46 26 -56 -9 -9 -67 43
-67 61 0 15 3 16 12 7 7 -7 20 -12 29 -12z m-106 -145 c17 -66 37 -119 49
-133 16 -18 21 -37 21 -77 0 -52 0 -53 29 -52 21 2 30 -3 32 -15 1 -10 5 -36
9 -59 5 -29 4 -40 -4 -35 -14 9 -14 7 2 -40 27 -76 30 -97 12 -90 -14 5 -15
-7 -11 -110 2 -63 7 -118 10 -121 3 -4 6 1 6 11 0 9 4 15 8 12 12 -7 5 -121
-8 -146 -21 -39 -51 -192 -54 -278 -1 -48 -6 -94 -10 -101 -13 -20 -45 16 -52
58 -3 20 -17 77 -30 127 -14 50 -29 115 -33 145 -5 30 -10 61 -12 69 -2 8 3
15 11 15 10 0 14 -8 13 -22 -2 -16 2 -21 12 -17 18 7 19 16 4 31 -6 6 -12 26
-14 45 -2 19 -11 75 -20 123 -9 49 -18 133 -20 186 -2 54 -6 115 -9 136 -3 21
-8 97 -11 168 -3 72 -8 144 -11 162 -4 23 -1 36 15 52 11 11 23 32 27 46 3 14
8 25 9 23 1 -2 15 -52 30 -113z m331 59 c9 -30 14 -58 11 -60 -7 -7 -46 99
-40 109 8 14 13 7 29 -49z m-90 -170 c-15 -17 -43 19 -48 63 -6 49 2 48 32 -4
20 -35 24 -50 16 -59z m161 60 l2 -39 -14 35 c-17 45 -18 53 -3 48 7 -3 13
-22 15 -44z m-47 -28 c0 -40 -11 -26 -20 26 -7 38 -7 41 6 23 8 -10 14 -32 14
-49z m95 -156 c-6 -18 -9 -20 -16 -9 -5 8 -9 25 -9 39 0 22 1 23 16 8 11 -10
14 -23 9 -38z m-190 -3 c14 -34 10 -77 -6 -77 -5 0 -9 13 -9 29 0 16 -4 41
-10 55 -15 40 8 32 25 -7z m161 -22 c14 -21 14 -28 3 -41 -12 -14 -14 -13 -22
8 -23 60 -12 79 19 33z m98 -65 l9 25 4 -24 c7 -34 -12 -49 -35 -28 -19 18
-24 41 -15 67 3 9 10 -1 17 -25 12 -38 12 -39 20 -15z m-283 -57 c10 -8 14
-23 11 -38 -3 -20 0 -25 17 -25 23 0 26 -7 12 -29 -6 -9 -11 -10 -15 -2 -4 6
-11 9 -16 6 -5 -3 -14 3 -19 14 -14 26 -14 44 0 35 8 -4 8 0 0 15 -7 11 -16
21 -21 21 -6 0 -10 7 -10 16 0 16 12 12 41 -13z m84 -23 c8 -16 15 -33 15 -37
-1 -14 -40 39 -40 53 0 22 8 17 25 -16z m145 -26 c0 -14 -4 -23 -10 -19 -5 3
-10 15 -10 26 0 10 5 19 10 19 6 0 10 -12 10 -26z m468 -52 c2 -7 -3 -12 -12
-12 -9 0 -16 7 -16 16 0 17 22 14 28 -4z m240 -3 c209 -53 390 -215 466 -417
13 -37 27 -80 30 -97 4 -16 8 -41 11 -55 8 -42 8 -162 1 -220 -10 -73 -51
-196 -82 -242 -13 -21 -24 -43 -24 -49 0 -6 -39 -50 -87 -98 -67 -66 -106 -95
-163 -123 -67 -32 -116 -51 -130 -51 -3 0 -16 -3 -29 -8 -13 -5 -54 -12 -91
-15 l-68 -6 -8 47 c-5 38 -4 49 9 57 16 9 14 30 -7 57 -6 8 -9 23 -8 35 2 12
-3 37 -11 55 -8 18 -12 43 -9 56 4 23 4 23 33 -8 l28 -32 -14 54 c-12 45 -12
58 -1 80 7 14 12 35 10 46 -9 61 -11 175 -2 175 6 0 7 8 3 18 -3 9 -9 43 -12
75 -6 63 -42 154 -43 108 0 -19 -3 -22 -12 -13 -6 6 -13 56 -15 119 -3 93 -2
106 10 91 13 -17 15 -17 32 2 16 18 16 22 2 52 -15 33 -35 102 -43 148 -5 25
-9 42 -20 80 -3 11 -1 20 5 20 6 0 11 -8 12 -17 0 -10 5 -2 11 16 5 19 8 45 5
58 -4 24 -3 24 67 22 39 -1 104 -10 144 -20z m-287 4 c0 -5 2 -39 4 -78 1 -38
8 -92 15 -120 15 -62 19 -102 19 -231 0 -55 5 -132 12 -170 14 -82 13 -117 -4
-152 -11 -22 -11 -36 -1 -72 7 -25 13 -36 14 -25 l1 20 9 -20 c12 -29 12 -45
-2 -42 -13 2 -30 -73 -19 -88 6 -8 7 -72 2 -130 0 -8 -9 -15 -19 -15 -15 0
-18 6 -15 33 3 24 2 28 -6 17 -12 -17 -7 -108 6 -121 5 -5 8 6 6 29 -3 34 -2
35 8 12 18 -43 12 -202 -8 -221 -5 -4 -37 1 -73 10 l-65 16 0 65 c0 47 4 64
13 63 13 -3 14 2 6 34 -4 13 -11 20 -16 17 -6 -4 -7 7 -4 27 17 105 22 186 17
279 -1 25 0 137 3 249 4 161 2 216 -10 260 -13 52 -21 227 -10 238 3 3 16 -17
30 -44 30 -58 32 -54 7 28 -32 106 -32 117 -2 128 32 12 81 14 82 4z m-11830
-140 c22 -49 47 -103 56 -120 10 -23 14 -54 11 -102 -2 -51 0 -67 9 -64 6 3
17 17 23 31 9 24 10 23 5 -13 -9 -82 -15 -94 -35 -70 -19 23 -52 2 -42 -28 5
-12 7 -41 6 -64 -1 -24 2 -40 7 -37 5 3 9 11 9 19 0 8 5 17 10 20 12 8 4 -49
-10 -74 -8 -14 -9 -13 -10 3 0 28 -10 13 -20 -29 -7 -32 -6 -35 10 -30 26 8
34 -12 16 -40 -19 -30 -20 -35 -2 -35 8 0 13 -11 12 -27 -1 -23 -7 -29 -31
-34 -24 -5 -27 -7 -12 -14 32 -14 9 -165 -24 -153 -4 2 -40 34 -78 72 l-71 68
0 -51 c0 -42 -3 -51 -17 -52 -102 -6 -234 -38 -305 -75 l-28 -14 24 52 c25 56
60 131 132 287 24 51 44 95 44 96 0 2 29 64 65 140 36 75 65 138 65 140 0 1
22 50 49 108 28 57 57 121 65 141 8 20 17 36 20 36 3 0 24 -39 47 -87z m11613
65 c-5 -10 -4 -10 6 -1 10 9 18 4 36 -23 27 -39 34 -95 10 -75 -11 10 -13 4
-9 -31 3 -24 0 -54 -6 -68 l-10 -25 0 28 c-1 32 -21 37 -22 5 -1 -39 -8 -80
-14 -86 -12 -13 -27 17 -19 39 11 33 11 41 1 69 -28 79 -25 152 6 172 18 12
29 9 21 -4z m-479 -94 c5 -45 5 -47 -9 -29 -14 20 -20 51 -17 90 3 35 20 -6
26 -61z m501 -210 c-3 -9 -6 -21 -6 -27 0 -8 -3 -8 -11 0 -13 13 -5 43 12 43
6 0 8 -7 5 -16z m-247 -59 c0 -26 -2 -27 -9 -10 -5 11 -9 31 -9 45 -1 20 1 22
9 10 5 -8 9 -28 9 -45z m127 -225 c7 0 17 12 20 26 5 19 9 23 18 14 13 -13 10
-173 -3 -178 -6 -2 -8 -9 -5 -17 3 -8 1 -22 -4 -32 -9 -15 -11 -12 -10 17 1
98 -1 107 -42 153 -23 25 -43 56 -45 69 -4 18 1 15 26 -15 17 -20 37 -37 45
-37z m-175 -113 c-6 -26 -17 -3 -15 30 3 52 7 58 13 23 4 -19 5 -43 2 -53z
m138 64 c6 -10 13 -38 17 -62 l6 -44 -26 40 c-26 40 -34 85 -16 85 5 0 14 -8
19 -19z m470 -51 c1 -27 -2 -50 -7 -50 -5 0 -8 23 -8 50 -1 28 2 50 6 50 4 0
8 -22 9 -50z m-892 -138 c7 -4 21 -33 32 -64 10 -31 35 -89 55 -130 35 -73 36
-77 29 -159 -8 -107 -5 -196 7 -219 7 -13 7 -21 -1 -25 -15 -10 -18 -4 -26 51
-8 61 -25 78 -73 76 -44 -3 -68 16 -77 60 -3 16 -16 36 -28 44 -17 11 -24 27
-27 60 -3 42 4 56 17 33 11 -17 49 -28 63 -17 17 14 15 45 -5 78 -14 25 -15
32 -1 66 10 27 12 51 7 79 -14 74 -8 90 28 67z m889 -57 c-4 -19 -11 -33 -16
-30 -7 5 -5 27 6 64 9 28 16 1 10 -34z m-724 -509 c-8 -15 -22 19 -21 54 l1
35 12 -40 c7 -22 11 -44 8 -49z m-11202 34 c0 -22 -5 -40 -10 -40 -6 0 -9 12
-6 28 2 15 5 33 5 40 1 6 3 12 6 12 3 0 5 -18 5 -40z m11740 -111 c35 -5 68
-16 72 -22 12 -18 7 -128 -11 -225 -9 -48 -14 -100 -10 -117 l6 -30 7 27 c4
15 5 31 2 36 -3 5 5 8 17 7 18 -1 23 -9 25 -40 3 -37 -14 -95 -27 -95 -4 0 -6
15 -4 33 3 23 2 28 -5 18 -6 -8 -17 -11 -25 -8 -11 4 -18 -15 -32 -94 -9 -54
-21 -97 -25 -94 -5 3 -13 -3 -19 -12 -15 -27 -13 -7 4 34 18 43 18 43 1 43 -8
0 -16 -16 -19 -43 -3 -24 -9 -51 -13 -60 -8 -23 14 -22 33 1 8 9 12 12 9 6 -3
-6 -8 -50 -12 -97 -6 -84 -6 -87 15 -87 27 0 27 -12 0 -36 -15 -13 -22 -15
-28 -6 -11 18 -112 -245 -111 -290 0 -36 -41 -179 -60 -208 -7 -12 -11 -7 -17
20 -4 19 -6 40 -4 45 1 6 -2 6 -8 0 -6 -6 -12 -24 -13 -40 -1 -17 -6 -35 -11
-42 -11 -16 0 -34 17 -27 24 9 3 -79 -43 -179 -11 -24 -17 -53 -14 -69 5 -28
-24 -118 -38 -118 -14 0 -11 19 8 51 13 23 15 31 5 41 -9 9 -12 8 -12 -8 0
-10 -9 -32 -20 -49 -20 -31 -28 -19 -10 15 9 16 8 18 -5 14 -8 -4 -18 -17 -21
-29 -3 -13 -11 -22 -17 -19 -18 6 -72 -135 -58 -149 13 -13 15 -61 2 -53 -4 3
-20 0 -35 -7 -25 -11 -26 -15 -20 -67 5 -51 3 -60 -30 -114 -20 -33 -36 -66
-36 -74 0 -7 -5 -23 -11 -34 -11 -21 -12 -21 -25 3 -7 13 -13 18 -14 11 0 -7
-20 -38 -45 -69 -41 -50 -58 -93 -37 -93 13 0 32 23 32 39 0 9 11 30 25 46
l25 30 -25 -59 c-14 -32 -25 -60 -25 -61 0 -2 -10 -5 -23 -9 -13 -3 -38 -30
-61 -66 -21 -33 -41 -60 -43 -60 -3 0 2 11 11 25 9 14 13 25 8 25 -5 0 -20
-21 -34 -47 -20 -37 -23 -52 -15 -64 13 -21 2 -49 -19 -49 -23 0 -43 -29 -44
-62 0 -16 -10 -34 -25 -46 -13 -11 -22 -21 -20 -24 3 -3 -1 -22 -8 -43 -8 -24
-16 -34 -21 -27 -15 25 -31 12 -30 -25 1 -43 -4 -63 -17 -63 -5 0 -6 15 -3 33
6 31 6 31 -9 12 -9 -11 -17 -32 -17 -47 0 -15 -5 -30 -11 -34 -8 -4 -9 1 -4
16 7 23 7 23 -18 4 -16 -11 -39 -50 -57 -96 -25 -59 -37 -78 -56 -82 -13 -4
-31 -19 -40 -34 -66 -106 -65 -106 -82 -88 -18 18 -9 45 18 54 7 3 10 0 6 -7
-4 -6 -3 -11 1 -11 5 0 16 17 26 38 9 20 25 48 34 61 17 24 17 24 -5 10 -12
-8 -22 -16 -22 -19 0 -3 -9 -16 -20 -30 -14 -18 -20 -20 -20 -9 0 8 20 39 45
67 26 31 42 59 39 67 -4 9 3 18 18 24 27 10 54 54 43 70 -4 7 9 31 28 54 19
23 37 52 41 64 4 11 18 24 32 27 25 7 25 7 8 36 -20 33 -24 32 -56 -12 -16
-24 -18 -30 -6 -26 14 6 14 3 2 -21 -8 -15 -23 -36 -33 -45 -19 -17 -19 -17
-14 16 2 18 10 40 17 48 6 8 19 32 29 53 11 25 23 37 37 37 20 0 23 7 22 45
-1 30 77 185 93 185 25 0 24 -15 -6 -63 -35 -57 -35 -58 -5 -44 14 7 29 27 37
49 9 29 15 35 25 27 17 -14 34 -3 34 23 0 42 36 84 71 80 9 -1 57 107 70 157
7 30 13 40 19 31 5 -9 18 7 40 51 17 35 36 69 42 76 6 7 12 34 14 60 3 38 10
51 36 73 22 19 28 29 19 34 -7 5 -21 0 -32 -10 -18 -16 -18 -13 3 34 19 44 26
51 45 47 18 -4 24 2 38 48 10 28 31 83 47 121 33 76 26 111 -10 54 l-22 -33
-1 28 c-2 36 -2 63 0 85 1 14 4 13 14 -6 l13 -23 12 25 c7 16 8 35 4 48 -11
30 -4 58 14 58 8 0 15 11 15 25 1 14 3 30 4 35 1 6 3 16 4 23 1 6 6 2 12 -11
15 -38 28 -16 17 28 -12 45 -4 63 15 36 12 -16 15 -14 40 21 14 21 33 52 41
69 16 34 18 43 36 160 7 43 18 83 26 89 8 5 24 55 36 110 25 118 37 138 32 58
-3 -65 0 -56 26 70 12 60 14 84 6 77 -25 -20 -17 76 17 195 34 120 37 153 28
323 -2 35 -3 36 -16 18 -14 -19 -15 -18 -16 15 -1 26 -5 18 -14 -31 -12 -64
-19 -60 -16 12 1 47 18 91 31 83 5 -3 10 -1 10 6 0 13 29 49 39 49 3 0 35 -5
71 -11z m170 -40 c0 -14 5 -19 18 -17 10 2 16 11 14 21 -2 10 4 17 13 17 11 0
15 -6 10 -19 -3 -10 -8 -42 -10 -72 -5 -52 -13 -117 -20 -149 -2 -8 -4 -19 -5
-25 -1 -5 -10 10 -21 34 -13 31 -16 48 -9 55 12 12 13 66 1 98 -20 55 -22 78
-6 78 9 0 15 -9 15 -21z m-57 -175 c7 -43 -8 -65 -17 -24 -3 18 -6 42 -6 53 0
30 17 8 23 -29z m-706 -16 c-3 -8 -6 -5 -6 6 -1 11 2 17 5 13 3 -3 4 -12 1
-19z m761 -75 c0 -16 5 -46 9 -68 10 -44 7 -75 -8 -75 -5 0 -9 8 -9 18 0 10
-7 28 -16 40 -14 21 -14 26 2 67 9 25 18 45 19 45 1 0 2 -12 3 -27z m-320 -87
c-6 -11 -14 -31 -18 -45 -6 -20 -9 -12 -15 40 -5 47 -3 73 5 90 13 23 13 22
26 -21 9 -32 10 -49 2 -64z m302 -76 c16 -9 18 -14 8 -35 -6 -13 -17 -26 -25
-29 -11 -4 -13 3 -11 34 2 44 2 44 28 30z m-80 -64 c5 -5 12 3 16 18 6 25 25
39 19 14 -16 -72 -18 -77 -36 -75 -16 1 -19 9 -18 47 1 25 3 36 6 25 3 -11 9
-24 13 -29z m39 -97 c-18 -44 -22 -28 -7 27 9 37 13 43 16 26 2 -13 -2 -37 -9
-53z m-11839 -111 c0 -5 0 -13 0 -18 0 -7 -20 -10 -47 -9 -57 3 -73 7 -73 21
0 6 6 6 14 -2 11 -8 20 -9 33 -1 14 8 15 11 3 11 -10 1 -8 4 5 9 21 9 64 1 65
-11z m11505 -15 c-2 -10 -4 -28 -4 -41 -1 -13 -5 -21 -9 -18 -5 3 -8 15 -6 28
1 13 3 29 3 36 1 6 5 12 10 12 5 0 8 -8 6 -17z m590 7 c3 -5 1 -10 -4 -10 -6
0 -11 5 -11 10 0 6 2 10 4 10 3 0 8 -4 11 -10z m-12128 -72 c-27 -46 -51 -67
-64 -55 -9 9 21 61 36 63 6 1 16 2 22 3 5 0 8 5 5 10 -5 8 5 16 23 20 1 1 -8
-18 -22 -41z m11771 -147 c-3 -37 -11 -78 -19 -91 -13 -25 -14 -25 -17 -3 -2
12 4 35 12 52 23 44 21 65 -4 51 -19 -10 -20 -9 -14 17 19 80 48 61 42 -26z
m-398 -110 c0 -15 -8 -52 -17 -82 -9 -30 -16 -57 -15 -61 1 -5 -3 -8 -9 -8 -8
0 -9 11 -5 33 4 17 12 60 18 94 12 62 28 76 28 24z m97 -54 c-6 -20 -27 -19
-27 2 0 14 5 19 15 14 9 -3 14 -10 12 -16z m-11342 -37 c3 -5 2 -10 -4 -10 -5
0 -13 5 -16 10 -3 6 -2 10 4 10 5 0 13 -4 16 -10z m11305 -41 c-18 -42 -25
-28 -9 16 8 20 15 31 17 25 2 -6 -2 -24 -8 -41z m266 -21 l-16 -22 0 22 c0 13
6 33 12 45 l13 22 3 -22 c2 -13 -4 -33 -12 -45z m79 -104 c-9 -31 -19 -54 -21
-51 -3 3 2 33 12 68 10 35 19 58 22 51 2 -6 -4 -37 -13 -68z m-166 -12 c-6
-18 -15 -30 -20 -27 -9 6 -2 32 14 53 15 20 18 8 6 -26z m-333 -56 c-11 -25
-19 -34 -30 -30 -20 8 -20 18 -2 33 8 7 13 23 11 37 -1 14 4 28 14 34 23 13
27 -27 7 -74z m352 -201 c2 -33 -1 -55 -8 -55 -5 0 -9 3 -9 8 4 26 -5 22 -16
-8 l-14 -35 5 45 c5 36 28 100 37 100 1 0 3 -25 5 -55z m-126 -55 c-7 -19 -10
-21 -15 -7 -8 22 3 51 15 39 5 -5 5 -19 0 -32z m-252 17 c0 -8 -9 -22 -20 -32
-23 -21 -25 -16 -8 20 12 27 28 34 28 12z m-69 -164 c-9 -16 -10 -16 -11 -1 0
9 3 25 7 35 7 16 8 17 11 1 2 -10 -1 -25 -7 -35z m305 -68 c4 -8 3 -22 0 -30
-4 -12 -10 -13 -25 -6 -16 9 -19 24 -12 49 3 9 33 -1 37 -13z m-367 -58 c-18
-39 -29 -33 -16 8 6 20 14 32 19 27 5 -5 4 -20 -3 -35z m-14 -83 c-4 -24 -3
-34 4 -29 8 4 8 -2 1 -20 -15 -40 -37 -68 -44 -56 -4 5 -1 13 5 16 6 4 10 26
9 49 -3 67 -1 76 16 76 13 0 15 -7 9 -36z m208 -5 c-3 -10 -9 -19 -14 -19 -11
0 -12 21 -3 45 9 23 23 0 17 -26z m122 -19 c-8 -29 -21 -60 -29 -69 -14 -13
-15 -12 -7 14 4 17 6 35 4 42 -4 11 37 76 43 70 2 -2 -3 -27 -11 -57z m-454
-33 c-8 -8 -11 -7 -11 4 0 20 13 34 18 19 3 -7 -1 -17 -7 -23z m49 -7 c0 -5
-4 -10 -10 -10 -5 0 -10 5 -10 10 0 6 5 10 10 10 6 0 10 -4 10 -10z m-590 -10
c0 -5 -4 -10 -10 -10 -5 0 -10 5 -10 10 0 6 5 10 10 10 6 0 10 -4 10 -10z
m114 -6 c20 -8 21 -44 2 -44 -8 0 -17 -6 -19 -12 -3 -7 -6 -2 -6 12 l-1 25
-20 -30 -20 -30 0 31 c0 45 24 63 64 48z m-45 -144 c-13 -22 -26 -40 -30 -40
-11 0 20 93 34 102 21 13 19 -20 -4 -62z m842 43 c-6 -10 -22 -46 -37 -80 -26
-61 -49 -92 -60 -80 -6 6 88 176 99 177 4 0 3 -8 -2 -17z m-380 -16 c-10 -9
-11 -8 -5 6 3 10 9 15 12 12 3 -3 0 -11 -7 -18z m315 -52 c-7 -28 -26 -34 -26
-9 0 8 5 25 12 37 14 26 23 8 14 -28z m-350 -16 l-14 -34 -1 32 c-1 17 5 33
12 36 19 7 19 2 3 -34z m-30 -84 c-7 -11 -16 -26 -21 -34 -6 -11 -10 -10 -17
4 -7 12 -5 29 8 57 17 39 18 39 30 16 10 -18 10 -27 0 -43z m81 41 c-4 -10
-13 -13 -23 -9 -15 6 -15 7 1 20 21 15 30 10 22 -11z m-649 -132 c-19 -32 -22
-34 -42 -21 -33 22 -31 43 6 54 51 15 60 7 36 -33z m743 -230 c-25 -32 -28
-13 -3 28 12 21 18 25 20 14 2 -9 -6 -28 -17 -42z m-276 -396 c-7 -26 -52 -84
-60 -77 -2 3 10 29 26 58 31 54 45 62 34 19z m-9822 -27 c19 -33 22 -45 7 -36
-14 9 -42 65 -32 65 4 0 15 -13 25 -29z m8845 10 c21 -13 -5 -49 -40 -56 -15
-4 -28 -13 -28 -21 0 -8 -13 -27 -28 -42 -16 -15 -43 -48 -61 -74 -52 -77
-110 -136 -130 -131 -11 3 -22 -5 -31 -21 -15 -29 -19 -30 -40 -15 -11 8 -12
12 -2 16 7 2 17 14 23 25 10 19 10 19 -18 1 -25 -16 -23 -13 12 29 31 37 45
47 62 43 21 -5 38 18 31 42 -3 10 49 74 71 88 7 4 5 -5 -5 -20 l-18 -28 22 14
c12 8 28 26 35 42 6 15 19 30 27 33 8 2 31 22 50 44 37 41 46 45 68 31z m562
-84 c0 -2 -19 -21 -41 -42 -42 -40 -43 -35 -5 18 11 15 26 27 33 27 7 0 13 -1
13 -3z m0 -58 c0 -24 -4 -30 -15 -25 -11 4 -15 -2 -15 -23 0 -28 -24 -49 -35
-31 -9 15 44 109 63 110 1 0 2 -14 2 -31z m290 5 c-15 -38 -40 -72 -40 -54 0
16 36 80 45 80 2 0 0 -12 -5 -26z m-267 -80 c-9 -15 -19 -21 -21 -15 -6 19 6
41 23 41 14 0 13 -3 -2 -26z m190 -24 c-10 -17 -31 -43 -47 -58 l-28 -27 18
30 c30 48 58 84 67 85 5 0 0 -14 -10 -30z m-423 -105 c-7 -8 -26 -21 -42 -30
-28 -14 -29 -13 -17 3 21 25 42 41 58 42 11 0 11 -3 1 -15z m70 0 c0 -8 -8
-23 -18 -32 -99 -94 -100 -95 -111 -75 -15 28 14 68 36 50 12 -10 18 -8 34 12
10 14 21 33 25 43 7 21 34 23 34 2z m244 -34 c-21 -35 -41 -43 -23 -8 16 31
31 48 36 43 3 -3 -3 -18 -13 -35z m-411 -13 c-3 -14 -13 -28 -24 -31 -25 -7
-24 4 2 37 25 32 29 31 22 -6z m187 -12 c0 -3 -7 -12 -16 -20 -23 -23 -40 -19
-19 4 16 18 35 26 35 16z m-9130 -67 c0 -5 -4 -9 -10 -9 -5 0 -10 7 -10 16 0
8 5 12 10 9 6 -3 10 -10 10 -16z m8897 -36 c-8 -15 -20 -49 -27 -75 -7 -27
-18 -48 -25 -48 -18 0 -73 -57 -115 -119 -34 -50 -50 -62 -50 -39 0 6 -13 -8
-30 -30 -32 -45 -37 -57 -17 -46 20 12 -26 -37 -54 -57 l-27 -19 19 37 c18 35
17 53 -2 53 -5 0 -9 -7 -9 -15 0 -8 -8 -22 -19 -31 -10 -9 -16 -24 -14 -34 4
-16 -47 -70 -68 -70 -17 0 -9 12 29 47 22 22 28 31 15 24 -32 -16 -29 -4 7 26
17 13 30 32 30 40 0 14 -3 13 -20 -2 -16 -15 -20 -15 -15 -3 7 18 36 34 91 48
31 7 45 17 53 38 7 15 32 40 57 55 70 45 136 126 139 171 1 28 9 44 31 61 35
28 40 26 21 -12z m-8762 17 c-3 -5 -10 -10 -16 -10 -5 0 -9 5 -9 10 0 6 7 10
16 10 8 0 12 -4 9 -10z m8595 -8 c0 -5 -9 -17 -20 -27 -20 -18 -25 -11 -14 19
6 17 34 23 34 8z m-8720 -23 c0 -6 -4 -7 -10 -4 -5 3 -10 11 -10 16 0 6 5 7
10 4 6 -3 10 -11 10 -16z m8956 -24 c-32 -32 -34 -19 -4 18 13 16 24 23 26 18
2 -6 -8 -22 -22 -36z m44 -174 c-11 -21 -29 -36 -35 -29 -3 2 2 14 11 26 19
28 39 30 24 3z m-244 -29 c-16 -15 -25 -20 -21 -12 13 25 38 50 44 45 3 -3 -8
-18 -23 -33z m-406 -275 c0 -7 -13 -23 -30 -35 l-30 -22 11 27 c14 38 49 59
49 30z m-162 -24 c-2 -5 -9 -25 -17 -45 -15 -38 -61 -71 -61 -43 0 8 5 15 11
15 6 0 9 9 6 20 -3 14 3 26 20 40 26 20 48 27 41 13z m152 -43 c-20 -22 -45
-40 -56 -40 -17 0 -16 3 6 23 28 25 72 56 81 56 3 1 -11 -17 -31 -39z m-7580
-9 c5 -11 10 -25 10 -32 0 -18 -27 7 -33 31 -7 26 9 26 23 1z m8080 9 c0 -5
-8 -14 -18 -19 -10 -5 -29 -30 -42 -55 -13 -25 -29 -46 -37 -46 -11 0 -10 6 3
32 9 18 23 38 30 46 8 7 19 22 24 33 11 20 40 27 40 9z m-681 -79 c-24 -15
-66 -48 -93 -72 -27 -24 -57 -43 -66 -41 -10 2 -25 -9 -34 -23 -9 -14 -22 -25
-29 -23 -16 3 -57 -24 -57 -37 0 -11 -40 -39 -46 -32 -10 10 33 67 59 78 15 7
37 23 48 38 11 14 31 26 43 26 13 1 41 16 62 34 45 38 121 81 143 81 8 0 -5
-13 -30 -29z m541 -43 c0 -19 -50 -85 -77 -104 -27 -17 -25 -6 6 30 15 18 15
18 -6 12 -35 -11 -27 6 20 41 46 35 57 40 57 21z m-182 -42 c-6 -14 -17 -27
-25 -30 -11 -5 -11 -1 -2 17 10 18 27 36 36 37 2 0 -2 -11 -9 -24z m31 -76
c-40 -34 -59 -43 -59 -27 0 13 71 60 79 52 2 -3 -7 -14 -20 -25z m-529 13 c0
-5 -28 -23 -63 -42 -52 -28 -59 -30 -42 -11 36 41 105 75 105 53z m100 -108
c-19 -19 -40 -35 -48 -35 -7 0 1 12 20 28 18 15 35 30 36 35 2 4 9 7 15 7 6 0
-4 -16 -23 -35z m330 26 c0 -4 -25 -25 -55 -45 -70 -46 -72 -33 -2 16 59 42
57 41 57 29z m-670 -19 c0 -8 -43 -32 -57 -32 -3 0 2 9 12 20 18 20 45 27 45
12z m-6442 -49 c66 -43 68 -58 2 -30 -27 11 -50 27 -50 34 0 18 16 16 48 -4z
m6342 -12 c0 -6 -4 -13 -10 -16 -5 -3 -10 -15 -10 -25 0 -13 -10 -20 -32 -25
-18 -4 -68 -27 -111 -52 -43 -25 -80 -43 -83 -41 -2 3 45 37 105 77 61 39 113
76 116 81 8 13 25 13 25 1z m590 -52 c-13 -23 -33 -33 -52 -26 -8 2 1 13 22
25 43 27 43 27 30 1z m-150 -84 c-7 -9 -26 -25 -43 -37 -27 -19 -28 -20 -17
-1 7 11 24 26 39 35 34 21 36 21 21 3z m50 -41 c0 -20 -32 -48 -92 -79 -55
-29 -65 -31 -47 -9 7 9 18 26 24 38 8 15 20 21 43 20 24 -1 32 4 32 16 0 20 9
30 27 30 7 0 13 -7 13 -16z m-6567 -39 c20 -9 37 -21 37 -26 0 -10 -77 28 -87
44 -3 5 -2 8 3 5 5 -3 26 -13 47 -23z m6417 11 c0 -3 -99 -66 -105 -66 -3 0
-2 7 2 16 7 18 103 65 103 50z m-6462 -33 c23 -15 39 -29 37 -31 -7 -8 -92 28
-105 44 -21 25 22 17 68 -13z m5698 12 c14 -13 12 -15 -17 -15 -27 0 -30 2
-19 15 7 8 14 15 17 15 2 0 11 -7 19 -15z m-5581 -35 c3 -6 -1 -7 -9 -4 -18 7
-21 14 -7 14 6 0 13 -4 16 -10z m60 -40 c10 -11 16 -22 14 -25 -7 -6 -49 24
-49 36 0 15 16 10 35 -11z m58 -79 c7 -8 -6 -5 -31 8 -23 12 -42 26 -42 32 0
11 55 -19 73 -40z m4938 -1 c-25 -21 -46 -27 -36 -9 6 9 41 27 55 28 3 0 -6
-9 -19 -19z m109 -28 c0 -8 -91 -42 -111 -41 -16 0 79 47 99 48 6 1 12 -2 12
-7z m-4954 -47 c12 -8 24 -11 28 -8 3 3 6 1 6 -5 0 -7 -2 -12 -5 -12 -10 0
-65 30 -65 35 0 9 16 5 36 -10z m4525 -29 c-7 -8 -26 -14 -42 -14 -26 1 -27 2
-12 13 18 13 55 24 62 18 2 -1 -2 -9 -8 -17z m-4269 -51 c10 -6 15 -14 12 -18
-8 -7 -49 8 -77 29 -21 15 -21 15 13 9 19 -4 43 -13 52 -20z m4233 15 c-3 -5
-13 -10 -21 -10 -8 0 -14 5 -14 10 0 6 9 10 21 10 11 0 17 -4 14 -10z m-271
-71 c-14 -13 -30 -19 -45 -17 -23 4 -22 6 11 21 48 22 58 21 34 -4z m-3844
-59 c0 -5 16 -10 35 -10 21 0 35 -5 35 -12 0 -21 -65 -13 -97 10 l-28 21 28 1
c15 0 27 -4 27 -10z m213 -38 c31 -14 54 -29 50 -33 -14 -11 -74 -29 -68 -19
3 5 -17 21 -45 35 -55 28 -70 60 -22 50 15 -4 53 -18 85 -33z m3267 4 c14 -18
19 -17 -105 -20 -48 -1 -78 -7 -97 -20 -19 -12 -32 -15 -43 -8 -15 8 -14 11 8
25 13 8 33 14 43 13 24 -4 74 13 74 25 0 5 7 9 15 9 8 0 15 -5 15 -11 0 -6 9
-4 22 5 22 16 44 10 68 -18z m-230 3 c0 -10 -13 -12 -48 -9 -13 1 -30 -4 -38
-10 -11 -10 -14 -9 -14 3 0 10 13 20 33 25 35 9 67 5 67 -9z m-2912 -66 c0
-27 -25 -31 -43 -6 -9 12 -10 23 -4 35 13 24 47 4 47 -29z m1976 40 c8 -9 -84
-32 -98 -25 -5 3 -1 11 9 19 20 14 77 18 89 6z m784 -6 c-41 -30 -56 -40 -62
-38 -12 3 0 17 29 33 35 20 58 23 33 5z m1522 -21 c-16 -16 -81 -35 -67 -20 7
7 60 31 77 33 2 1 -2 -5 -10 -13z m-180 -6 c0 -5 -2 -10 -4 -10 -3 0 -8 5 -11
10 -3 6 -1 10 4 10 6 0 11 -4 11 -10z m-4170 -26 c23 -9 39 -18 37 -21 -8 -8
-97 19 -91 28 7 12 7 12 54 -7z m4370 7 c-8 -5 -26 -12 -40 -15 -24 -7 -24 -6
-6 8 11 9 29 16 40 16 17 -1 18 -2 6 -9z m-129 -15 c-10 -12 -16 -35 -20 -78
-1 -10 -42 -31 -48 -25 -2 3 0 15 7 26 10 21 9 21 -32 15 l-43 -6 25 21 c26
21 98 60 114 61 5 0 3 -6 -3 -14z m-3998 -60 c14 -43 -3 -47 -68 -16 -33 16
-54 29 -47 30 7 0 23 -5 35 -11 18 -9 20 -9 10 2 -20 20 -16 24 24 23 31 -1
39 -6 46 -28z m3807 -6 c0 -11 -48 -25 -57 -16 -3 3 5 10 18 15 32 13 39 13
39 1z m-3475 -90 c4 -7 -3 -9 -20 -6 -37 7 -44 16 -12 16 14 0 29 -5 32 -10z
m35 -30 c-8 -5 -22 -10 -30 -10 -13 0 -13 1 0 10 8 5 22 10 30 10 13 0 13 -1
0 -10z m248 -42 c68 -20 74 -23 47 -29 -17 -3 -47 1 -68 9 -26 10 -41 11 -45
5 -10 -15 -52 3 -52 22 0 21 28 19 118 -7z m175 -43 c70 -16 75 -20 48 -34
-16 -9 -22 -8 -29 5 -6 11 -22 16 -50 16 -26 -1 -42 4 -46 14 -7 17 3 17 77
-1z m217 -45 c12 -8 10 -10 -10 -10 -14 0 -32 5 -40 10 -12 8 -10 10 10 10 14
0 32 -5 40 -10z m100 -67 c3 -3 -4 -3 -15 0 -11 4 -50 8 -86 9 -46 2 -65 7
-62 15 8 20 45 20 103 0 30 -10 57 -21 60 -24z m406 22 c-3 -9 13 -13 61 -14
68 -1 87 -6 78 -21 -7 -12 -205 0 -236 14 -10 5 -19 2 -22 -8 -3 -8 -16 -20
-28 -26 -20 -11 -21 -10 -15 15 6 25 5 27 -14 22 -21 -6 -70 10 -70 22 0 4 46
7 101 8 56 2 104 4 106 7 9 9 44 -8 39 -19z m269 -15 c-2 -4 -15 -6 -27 -5
-65 7 -65 7 -38 14 29 8 72 2 65 -9z m-557 -30 c13 0 33 5 44 11 16 9 19 8 16
-3 -7 -19 -100 -18 -106 2 -4 12 -2 13 9 3 7 -7 24 -13 37 -13z m-128 -31 l25
-1 -25 -7 c-32 -10 -50 -3 -50 17 0 12 3 13 12 4 7 -7 23 -12 38 -13z m456 14
c-10 -10 -119 -15 -113 -5 4 5 32 9 62 10 31 0 54 -2 51 -5z"/>
<path d="M11885 8589 c4 -14 7 -33 9 -43 3 -18 36 -50 43 -42 4 4 -27 69 -47
96 -8 12 -9 9 -5 -11z"/>
<path d="M11960 8307 c0 -18 5 -27 15 -27 13 0 14 4 4 23 -17 33 -19 33 -19 4z"/>
<path d="M11930 8040 c0 -34 14 -39 30 -11 15 29 12 41 -10 41 -16 0 -20 -7
-20 -30z"/>
<path d="M11940 7981 c0 -6 5 -13 10 -16 6 -3 10 1 10 9 0 9 -4 16 -10 16 -5
0 -10 -4 -10 -9z"/>
<path d="M12856 7797 c1 -47 13 -97 23 -97 8 0 6 65 -3 108 -11 45 -21 40 -20
-11z"/>
<path d="M12958 7255 c-6 -7 -1 -56 8 -64 9 -10 12 6 6 37 -4 19 -10 31 -14
27z"/>
<path d="M12770 7810 c-3 -33 1 -124 6 -129 12 -12 14 15 6 80 -5 41 -11 63
-12 49z"/>
<path d="M12709 7773 c-1 -29 -2 -59 -3 -65 -1 -7 7 -12 17 -10 11 2 17 -4 17
-15 0 -10 5 -25 10 -33 16 -25 3 59 -19 120 l-20 55 -2 -52z"/>
<path d="M12757 7243 c-15 -26 -27 -84 -20 -97 6 -10 14 -1 30 35 17 39 19 50
8 59 -7 6 -15 7 -18 3z"/>
<path d="M12550 8059 c0 -27 2 -30 15 -19 11 9 12 17 4 31 -14 27 -19 24 -19
-12z"/>
<path d="M12703 6570 c0 -25 2 -35 4 -22 2 12 2 32 0 45 -2 12 -4 2 -4 -23z"/>
<path d="M12627 6199 c-9 -32 -9 -39 2 -39 13 0 19 23 11 44 -6 18 -7 18 -13
-5z"/>
<path d="M12612 6018 c-10 -37 -6 -50 8 -28 10 15 14 60 5 60 -2 0 -8 -15 -13
-32z"/>
<path d="M12617 5912 c-10 -34 -22 -60 -27 -57 -8 5 -60 -65 -60 -80 0 -3 10
-5 23 -5 28 1 61 25 53 39 -4 6 3 31 14 56 12 26 20 61 18 78 -3 28 -5 25 -21
-31z"/>
<path d="M12568 5728 c-2 -12 -7 -21 -11 -18 -5 3 -13 -3 -19 -14 -7 -13 -7
-20 2 -26 9 -6 9 -13 0 -31 -12 -23 -12 -23 6 -6 11 10 19 25 20 35 0 9 4 30
9 45 4 15 5 30 2 33 -3 3 -7 -5 -9 -18z"/>
<path d="M12445 5554 c-17 -58 -16 -74 3 -51 11 13 27 107 18 107 -2 0 -12
-25 -21 -56z"/>
<path d="M12496 5472 c-18 -65 -20 -86 -7 -78 15 10 44 117 34 127 -7 7 -16
-11 -27 -49z"/>
<path d="M12440 5459 c0 -12 7 -19 18 -19 10 0 19 6 19 14 0 8 -9 17 -19 19
-13 4 -18 0 -18 -14z"/>
<path d="M12421 5377 c-17 -42 -13 -67 5 -28 8 19 13 39 10 45 -2 6 -9 -2 -15
-17z"/>
<path d="M12414 5235 c0 -19 2 -35 3 -35 9 0 22 42 17 54 -11 28 -21 17 -20
-19z"/>
<path d="M12283 5210 c-12 -45 -8 -53 18 -39 15 7 18 16 13 37 -11 44 -19 44
-31 2z"/>
<path d="M12110 4579 c0 -17 4 -28 10 -24 6 3 10 17 10 31 0 13 -4 24 -10 24
-5 0 -10 -14 -10 -31z"/>
<path d="M12087 4533 c-4 -3 -7 -18 -7 -31 0 -31 9 -24 16 12 4 27 2 31 -9 19z"/>
<path d="M11750 4063 c0 -34 13 -44 23 -19 3 8 -1 22 -8 33 -13 17 -14 16 -15
-14z"/>
<path d="M11670 4050 c-6 -12 -9 -24 -7 -27 3 -2 11 5 17 17 6 12 9 24 7 27
-3 2 -11 -5 -17 -17z"/>
<path d="M11673 3997 c-6 -6 -7 -23 -3 -37 6 -25 6 -25 17 7 12 33 3 53 -14
30z"/>
<path d="M12882 6460 c0 -14 2 -19 5 -12 2 6 2 18 0 25 -3 6 -5 1 -5 -13z"/>
<path d="M5168 12818 c-16 -5 -28 -14 -28 -19 0 -16 37 -10 61 11 27 22 13 25
-33 8z"/>
<path d="M4893 12772 c-17 -10 -46 -30 -64 -47 -42 -37 -59 -44 -84 -35 -16 6
-33 -3 -75 -41 -45 -40 -49 -46 -23 -33 44 21 64 7 26 -17 l-28 -19 40 6 c22
3 44 13 49 22 21 37 142 142 164 142 11 0 37 29 31 34 -2 2 -18 -3 -36 -12z"/>
<path d="M4998 12772 c-9 -2 -20 -12 -23 -22 -3 -10 -16 -20 -28 -23 -19 -3
-20 -4 -5 -11 22 -10 108 30 108 49 0 13 -14 15 -52 7z"/>
<path d="M5095 12750 c-10 -11 -15 -20 -12 -20 14 0 57 24 57 32 0 15 -27 8
-45 -12z"/>
<path d="M4557 12551 c-26 -26 -47 -50 -47 -54 0 -11 72 28 98 53 13 13 20 25
15 29 -4 3 -10 9 -13 13 -3 4 -27 -15 -53 -41z"/>
<path d="M4418 12543 c-32 -14 -58 -29 -58 -34 0 -10 90 28 110 47 19 18 16
17 -52 -13z"/>
<path d="M4298 12524 c-16 -8 -28 -17 -28 -19 0 -11 19 -4 41 15 29 23 24 25
-13 4z"/>
<path d="M4281 12465 c-28 -13 -113 -69 -145 -96 -5 -4 2 -5 15 -2 27 7 188
114 169 113 -3 -1 -20 -7 -39 -15z"/>
<path d="M4330 12440 c0 -5 -5 -10 -12 -10 -6 0 -25 -11 -42 -23 -17 -13 -52
-32 -78 -42 -27 -10 -48 -22 -48 -26 0 -17 27 -9 86 27 32 20 74 43 92 50 33
15 43 34 17 34 -8 0 -15 -4 -15 -10z"/>
<path d="M3957 12260 c-51 -32 -64 -50 -19 -26 30 17 80 55 71 56 -3 0 -26
-13 -52 -30z"/>
<path d="M3887 12180 c-26 -16 -47 -31 -47 -34 0 -4 71 10 73 16 1 1 8 13 15
26 7 12 11 22 9 22 -2 0 -24 -13 -50 -30z"/>
<path d="M3699 12065 c-37 -30 -69 -51 -73 -48 -3 3 -1 12 5 20 20 24 -7 14
-31 -12 -14 -15 -18 -25 -11 -25 11 0 11 -3 1 -15 -11 -13 -10 -14 6 -9 22 8
156 107 174 129 26 31 -8 12 -71 -40z"/>
<path d="M3291 12050 c-36 -28 -61 -50 -56 -50 9 0 67 43 105 77 42 38 19 26
-49 -27z"/>
<path d="M8435 11900 c-3 -5 1 -10 9 -10 9 0 16 5 16 10 0 6 -4 10 -9 10 -6 0
-13 -4 -16 -10z"/>
<path d="M3080 11894 c-16 -5 -45 -43 -38 -50 3 -2 20 10 39 26 33 28 32 33
-1 24z"/>
<path d="M3300 11775 c-23 -25 -23 -25 -2 -25 12 0 23 8 27 21 10 31 1 32 -25
4z"/>
<path d="M8545 11740 c4 -6 11 -8 16 -5 14 9 11 15 -7 15 -8 0 -12 -5 -9 -10z"/>
<path d="M9095 11670 c4 -6 11 -8 16 -5 14 9 11 15 -7 15 -8 0 -12 -5 -9 -10z"/>
<path d="M3202 11649 c-9 -12 -30 -34 -47 -50 l-30 -29 50 25 c50 26 65 40 65
63 0 19 -18 14 -38 -9z"/>
<path d="M3042 11565 c-20 -19 -32 -35 -27 -35 15 0 92 69 77 70 -7 0 -29 -16
-50 -35z"/>
<path d="M2862 11498 c-17 -17 -15 -38 3 -38 9 0 15 9 15 25 0 29 -1 30 -18
13z"/>
<path d="M2919 11462 c-39 -32 -53 -64 -16 -36 23 17 62 64 54 64 -2 0 -19
-12 -38 -28z"/>
<path d="M3058 11453 c7 -3 16 -2 19 1 4 3 -2 6 -13 5 -11 0 -14 -3 -6 -6z"/>
<path d="M2775 11328 c-49 -55 -96 -106 -103 -114 -7 -8 -10 -14 -5 -14 14 1
173 157 173 170 0 7 7 22 17 32 9 10 14 20 12 21 -2 2 -44 -41 -94 -95z"/>
<path d="M10112 11418 c-17 -17 -15 -32 7 -52 21 -19 35 -15 51 14 18 33 -31
65 -58 38z"/>
<path d="M2472 11098 c-6 -6 -12 -21 -12 -32 0 -20 1 -19 16 2 18 26 15 49 -4
30z"/>
<path d="M2397 10920 c-10 -16 -14 -30 -8 -30 12 0 34 37 29 51 -2 5 -11 -4
-21 -21z"/>
<path d="M11189 10866 c26 -28 54 -35 45 -12 -3 8 -13 17 -22 20 -9 3 -24 9
-32 12 -8 4 -4 -5 9 -20z"/>
<path d="M11270 10776 c0 -3 21 -20 48 -37 36 -25 42 -27 27 -10 -19 22 -75
57 -75 47z"/>
<path d="M10555 10730 c-3 -5 -1 -10 4 -10 6 0 11 5 11 10 0 6 -2 10 -4 10 -3
0 -8 -4 -11 -10z"/>
<path d="M11181 10425 c0 -14 28 -50 34 -43 3 3 -3 16 -14 29 -11 13 -20 20
-20 14z"/>
<path d="M11171 10371 c10 -29 39 -62 39 -45 0 11 -38 74 -44 74 -3 0 0 -13 5
-29z"/>
<path d="M11240 10311 c0 -11 9 -21 22 -24 29 -8 31 -5 12 21 -19 27 -34 28
-34 3z"/>
<path d="M11490 10205 c0 -13 30 -62 46 -76 14 -11 13 -6 -4 28 -20 38 -42 64
-42 48z"/>
<path d="M11658 9852 c5 -9 8 -25 6 -35 -1 -11 0 -16 4 -13 3 3 16 -4 29 -16
13 -12 23 -18 23 -14 0 17 -41 84 -55 90 -12 4 -13 2 -7 -12z"/>
<path d="M11804 9443 c9 -18 21 -33 26 -33 17 0 11 16 -16 41 l-27 24 17 -32z"/>
<path d="M11880 9304 c0 -12 42 -64 51 -64 17 0 9 23 -17 46 -25 24 -34 29
-34 18z"/>
<path d="M12637 8927 c-4 -10 -2 -28 4 -39 15 -28 19 -19 10 22 -5 28 -8 31
-14 17z"/>
<path d="M12679 8694 c10 -34 39 -94 46 -94 3 0 -4 23 -15 52 -22 59 -45 89
-31 42z"/>
<path d="M1196 8614 c-9 -23 10 -42 26 -26 10 10 9 16 -4 28 -14 14 -16 14
-22 -2z"/>
<path d="M1130 8588 c0 -7 -3 -24 -7 -38 -6 -22 -5 -24 10 -11 18 15 23 61 7
61 -5 0 -10 -6 -10 -12z"/>
<path d="M946 6215 c9 -38 9 -38 23 -22 8 11 6 18 -10 33 -20 18 -20 18 -13
-11z"/>
<path d="M13070 5860 c0 -5 4 -10 9 -10 6 0 13 5 16 10 3 6 -1 10 -9 10 -9 0
-16 -4 -16 -10z"/>
<path d="M12412 4668 c-18 -18 -15 -41 4 -34 12 5 14 1 9 -17 -6 -17 -5 -19 5
-10 16 15 21 73 6 73 -7 0 -17 -5 -24 -12z"/>
<path d="M1785 3663 c37 -57 45 -67 45 -55 0 16 -43 82 -54 82 -4 0 0 -12 9
-27z"/>
<path d="M11917 3576 c-31 -30 -57 -63 -57 -73 0 -11 -14 -41 -30 -69 l-30
-49 45 50 c25 27 45 55 45 62 0 6 14 27 31 45 27 29 65 88 56 88 -2 0 -29 -24
-60 -54z"/>
<path d="M11882 3413 c-43 -42 -137 -171 -130 -179 3 -2 28 28 56 68 62 88 80
108 112 131 13 9 19 17 13 17 -6 0 -29 -17 -51 -37z"/>
<path d="M11756 3372 c-8 -16 -28 -43 -45 -61 -17 -18 -31 -43 -31 -56 0 -13
-22 -45 -58 -82 -65 -68 -97 -112 -87 -121 4 -4 14 4 24 17 9 14 34 43 57 65
22 23 57 66 77 97 20 31 46 64 57 74 23 21 27 40 6 32 -11 -4 -9 4 6 29 11 19
17 34 14 34 -3 0 -12 -13 -20 -28z"/>
<path d="M1734 3335 c-9 -35 -3 -38 40 -20 31 13 36 18 26 30 -21 25 -59 19
-66 -10z"/>
<path d="M11513 3113 c-3 -10 -8 -22 -10 -28 -3 -5 3 -1 11 9 16 20 21 36 11
36 -3 0 -8 -8 -12 -17z"/>
<path d="M11494 3063 c4 -7 3 -13 -2 -13 -6 0 -18 -13 -29 -29 -10 -16 -36
-49 -58 -73 -86 -92 -95 -120 -11 -35 107 109 124 133 106 150 -10 9 -11 9 -6
0z"/>
<path d="M11305 2747 c-22 -21 -31 -35 -20 -29 23 12 71 60 64 65 -2 2 -22
-14 -44 -36z"/>
<path d="M2461 2719 c17 -26 42 -38 34 -17 -3 7 -15 20 -27 27 -22 14 -22 13
-7 -10z"/>
<path d="M2435 2671 c-3 -5 -1 -12 5 -16 5 -3 10 1 10 9 0 18 -6 21 -15 7z"/>
<path d="M2295 2604 c-28 -14 -59 -34 -69 -44 -19 -19 -19 -19 9 -57 38 -51
76 -82 100 -82 41 -1 47 12 44 100 -4 125 -4 125 -84 83z"/>
<path d="M2480 2593 c0 -5 5 -15 10 -23 8 -12 10 -11 10 8 0 12 -4 22 -10 22
-5 0 -10 -3 -10 -7z"/>
<path d="M2495 2541 c-3 -5 -1 -12 5 -16 5 -3 10 1 10 9 0 18 -6 21 -15 7z"/>
<path d="M10987 2468 c-18 -15 -37 -75 -19 -65 14 10 53 77 44 77 -5 0 -16 -6
-25 -12z"/>
<path d="M10865 2348 c-53 -38 -215 -170 -215 -175 0 -3 11 2 25 11 13 9 30
16 37 16 7 0 39 28 71 63 36 37 61 57 64 50 7 -19 23 -16 23 4 0 9 7 25 17 35
21 24 15 22 -22 -4z"/>
<path d="M10888 2305 c-29 -27 -33 -35 -19 -35 19 0 44 24 54 53 8 22 8 22
-35 -18z"/>
<path d="M2970 2260 c0 -5 5 -10 10 -10 6 0 10 5 10 10 0 6 -4 10 -10 10 -5 0
-10 -4 -10 -10z"/>
<path d="M10561 2115 c-60 -35 -143 -96 -137 -102 15 -15 72 16 127 68 35 32
62 59 59 59 -3 0 -25 -12 -49 -25z"/>
<path d="M3259 2093 c5 -10 25 -33 43 -51 28 -27 39 -31 58 -24 l23 9 -21 19
c-19 18 -97 64 -108 64 -3 0 0 -8 5 -17z"/>
<path d="M3396 2001 c-3 -5 5 -16 19 -25 28 -19 35 -20 35 -6 0 6 -6 10 -14
10 -8 0 -18 4 -21 10 -3 6 1 7 9 4 9 -3 16 -1 16 5 0 13 -36 15 -44 2z"/>
<path d="M10002 1747 c-25 -27 -29 -42 -8 -34 34 13 22 -9 -22 -39 -34 -25
-42 -34 -27 -34 11 0 38 16 60 35 22 19 55 40 74 46 30 10 33 13 18 24 -9 7
-14 15 -10 18 14 14 -11 6 -46 -15 l-36 -22 19 22 c26 29 5 28 -22 -1z"/>
<path d="M9659 1531 c-24 -30 -16 -41 11 -16 11 10 23 15 27 12 7 -7 33 11 33
23 0 18 -54 3 -71 -19z"/>
<path d="M9510 1498 c-45 -26 -58 -38 -39 -38 7 0 30 14 49 30 41 34 38 36
-10 8z"/>
<path d="M9547 1469 c-10 -18 -16 -33 -15 -34 7 -7 48 16 48 26 0 7 8 18 18
25 16 12 15 13 -8 14 -18 0 -30 -9 -43 -31z"/>
<path d="M9363 1419 c-18 -12 -33 -22 -33 -24 0 -1 25 5 55 14 30 9 55 19 55
24 0 14 -46 6 -77 -14z"/>
<path d="M4240 1418 c14 -7 40 -20 58 -31 17 -10 32 -16 32 -13 0 9 -86 56
-101 55 -8 0 -3 -5 11 -11z"/>
<path d="M9225 1347 c-12 -10 -14 -16 -7 -21 13 -8 52 10 52 24 0 14 -23 12
-45 -3z"/>
<path d="M9160 1315 c-12 -15 -12 -16 13 -19 15 -2 36 16 30 27 -7 12 -30 8
-43 -8z"/>
<path d="M9107 1260 c-53 -10 -61 -24 -9 -17 41 5 61 13 51 20 -2 2 -21 0 -42
-3z"/>
<path d="M8983 1212 c-35 -18 -44 -33 -15 -26 20 6 71 44 57 43 -5 0 -25 -8
-42 -17z"/>
<path d="M8493 1069 c-18 -12 -33 -22 -33 -23 0 -2 15 -1 33 2 33 5 57 18 57
33 0 15 -23 10 -57 -12z"/>
<path d="M5290 1039 c0 -15 33 -26 80 -27 25 0 36 2 25 5 -11 3 -39 11 -62 18
-24 7 -43 9 -43 4z"/>
<path d="M8265 1012 c-42 -5 -57 -22 -19 -22 36 0 74 10 74 19 0 8 -7 8 -55 3z"/>
<path d="M8116 981 c-11 -17 25 -21 47 -6 21 15 21 15 -10 15 -18 0 -34 -4
-37 -9z"/>
<path d="M7861 942 c-23 -4 -23 -4 -2 -18 18 -13 24 -13 49 0 16 8 32 13 35
10 3 -3 8 -1 11 5 7 10 -32 11 -93 3z"/>
<path d="M7540 901 c-8 -6 -53 -11 -100 -11 -75 -1 -83 -2 -67 -15 11 -7 36
-17 58 -20 21 -4 39 -11 39 -16 0 -6 -4 -7 -10 -4 -5 3 -10 1 -10 -6 0 -14 77
-6 92 9 7 7 -2 8 -26 2 -39 -8 -43 -4 -23 23 14 20 56 23 110 9 37 -10 59 0
41 18 -14 14 -88 22 -104 11z"/>
<path d="M7043 892 c-13 -2 -23 -6 -23 -10 0 -4 -21 -8 -47 -10 -43 -2 -71 -6
-113 -17 -8 -2 -22 -4 -30 -5 -11 0 -8 -6 9 -20 27 -23 43 -26 35 -6 -11 28 2
30 219 35 32 1 36 3 25 14 -16 16 -46 24 -75 19z"/>
<path d="M6693 863 c9 -2 23 -2 30 0 6 3 -1 5 -18 5 -16 0 -22 -2 -12 -5z"/>
<path d="M7210 860 c-25 -3 -52 -10 -60 -15 -8 -5 -43 -10 -77 -11 -33 -1 -66
-5 -72 -8 -21 -13 -11 -26 17 -22 82 13 164 16 176 7 16 -13 83 17 89 41 5 18
6 17 -73 8z"/>
<path d="M7782 863 c-31 -6 -17 -23 19 -23 19 0 29 5 29 15 0 15 -6 16 -48 8z"/>
<path d="M7261 784 c-10 -23 -10 -26 4 -20 9 3 24 6 33 6 15 0 15 2 2 10 -11
7 -11 10 -2 10 7 0 10 5 7 10 -11 18 -32 10 -44 -16z"/>
<path d="M6935 781 c-3 -5 -1 -12 4 -15 13 -8 42 4 35 15 -7 12 -31 12 -39 0z"/>
</g>
</svg>
